<svg xmlns="http://www.w3.org/2000/svg" xmlns:xlink="http://www.w3.org/1999/xlink" width="306" zoomAndPan="magnify" viewBox="0 0 229.5 65.249999" height="87" preserveAspectRatio="xMidYMid meet" version="1.0"><defs><g/><clipPath id="a0a96ef2ce"><path d="M 1.058594 0 L 227.949219 0 L 227.949219 64.507812 L 1.058594 64.507812 Z M 1.058594 0 " clip-rule="nonzero"/></clipPath><clipPath id="dc6cfd0484"><path d="M 0.0585938 23 L 41 23 L 41 57 L 0.0585938 57 Z M 0.0585938 23 " clip-rule="nonzero"/></clipPath><clipPath id="8ceaba7999"><path d="M 183 10 L 226.949219 10 L 226.949219 57 L 183 57 Z M 183 10 " clip-rule="nonzero"/></clipPath><clipPath id="615f6a011c"><rect x="0" width="227" y="0" height="65"/></clipPath></defs><g clip-path="url(#a0a96ef2ce)"><g transform="matrix(1, 0, 0, 1, 1, 0.000000000000000912)"><g clip-path="url(#615f6a011c)"><g clip-path="url(#dc6cfd0484)"><g fill="#ffffff" fill-opacity="1"><g transform="translate(0.0568199, 56.080086)"><g><path d="M -2.578125 0 C -3.054688 0 -3.390625 -0.128906 -3.578125 -0.390625 C -3.773438 -0.648438 -3.8125 -0.992188 -3.6875 -1.421875 L -2.265625 -6.65625 C -2.085938 -7.382812 -1.59375 -7.75 -0.78125 -7.75 L 19.578125 -7.75 C 20.265625 -7.75 20.882812 -7.972656 21.4375 -8.421875 C 22 -8.878906 22.390625 -9.453125 22.609375 -10.140625 C 22.648438 -10.265625 22.671875 -10.457031 22.671875 -10.71875 C 22.671875 -11.238281 22.5 -11.660156 22.15625 -11.984375 C 21.8125 -12.304688 21.359375 -12.46875 20.796875 -12.46875 L 5.75 -12.46875 C 4.28125 -12.46875 3.082031 -12.914062 2.15625 -13.8125 C 1.238281 -14.71875 0.78125 -15.863281 0.78125 -17.25 C 0.78125 -17.59375 0.863281 -18.148438 1.03125 -18.921875 L 2.96875 -26.296875 C 3.445312 -28.054688 4.492188 -29.570312 6.109375 -30.84375 C 7.722656 -32.113281 9.410156 -32.75 11.171875 -32.75 L 38.75 -32.75 C 39.226562 -32.75 39.5625 -32.617188 39.75 -32.359375 C 39.945312 -32.097656 39.984375 -31.753906 39.859375 -31.328125 L 38.5 -26.09375 C 38.28125 -25.363281 37.785156 -25 37.015625 -25 L 16.671875 -25 C 15.890625 -25 15.175781 -24.6875 14.53125 -24.0625 C 13.882812 -23.4375 13.5625 -22.757812 13.5625 -22.03125 C 13.5625 -21.507812 13.722656 -21.078125 14.046875 -20.734375 C 14.367188 -20.390625 14.8125 -20.21875 15.375 -20.21875 L 30.421875 -20.21875 C 31.890625 -20.21875 33.097656 -19.765625 34.046875 -18.859375 C 34.992188 -17.953125 35.46875 -16.8125 35.46875 -15.4375 C 35.46875 -15.09375 35.378906 -14.535156 35.203125 -13.765625 L 33.203125 -6.453125 C 32.722656 -4.691406 31.675781 -3.175781 30.0625 -1.90625 C 28.445312 -0.632812 26.757812 0 25 0 Z M -2.578125 0 "/></g></g></g></g><g fill="#ffffff" fill-opacity="1"><g transform="translate(37.524619, 56.080086)"><g><path d="M 2.390625 0 C 0.921875 0 -0.269531 -0.453125 -1.1875 -1.359375 C -2.113281 -2.265625 -2.578125 -3.40625 -2.578125 -4.78125 C -2.578125 -5.125 -2.492188 -5.679688 -2.328125 -6.453125 L 4.390625 -31.65625 C 4.609375 -32.382812 5.101562 -32.75 5.875 -32.75 L 14.859375 -32.75 C 15.328125 -32.75 15.660156 -32.617188 15.859375 -32.359375 C 16.054688 -32.097656 16.085938 -31.753906 15.953125 -31.328125 L 10.53125 -10.984375 C 10.445312 -10.546875 10.40625 -10.242188 10.40625 -10.078125 C 10.40625 -9.390625 10.640625 -8.828125 11.109375 -8.390625 C 11.585938 -7.960938 12.191406 -7.75 12.921875 -7.75 L 18.734375 -7.75 C 19.640625 -7.75 20.476562 -8.0625 21.25 -8.6875 C 22.019531 -9.3125 22.535156 -10.078125 22.796875 -10.984375 L 28.296875 -31.65625 C 28.503906 -32.382812 29 -32.75 29.78125 -32.75 L 38.75 -32.75 C 39.226562 -32.75 39.5625 -32.617188 39.75 -32.359375 C 39.945312 -32.097656 39.984375 -31.753906 39.859375 -31.328125 L 33.203125 -6.453125 C 32.722656 -4.691406 31.675781 -3.175781 30.0625 -1.90625 C 28.445312 -0.632812 26.757812 0 25 0 Z M 2.390625 0 "/></g></g></g><g fill="#ffffff" fill-opacity="1"><g transform="translate(74.992419, 56.080086)"><g><path d="M -2.578125 0 C -3.054688 0 -3.390625 -0.128906 -3.578125 -0.390625 C -3.773438 -0.648438 -3.8125 -0.992188 -3.6875 -1.421875 L 2.96875 -26.296875 C 3.445312 -28.054688 4.492188 -29.570312 6.109375 -30.84375 C 7.722656 -32.113281 9.410156 -32.75 11.171875 -32.75 L 38.75 -32.75 C 39.226562 -32.75 39.5625 -32.617188 39.75 -32.359375 C 39.945312 -32.097656 39.984375 -31.753906 39.859375 -31.328125 L 38.5 -26.09375 C 38.28125 -25.363281 37.785156 -25 37.015625 -25 L 17.5 -25 C 16.601562 -25 15.753906 -24.675781 14.953125 -24.03125 C 14.160156 -23.382812 13.65625 -22.628906 13.4375 -21.765625 L 7.875 -1.09375 C 7.664062 -0.363281 7.171875 0 6.390625 0 Z M -2.578125 0 "/></g></g></g><g fill="#ffffff" fill-opacity="1"><g transform="translate(112.460218, 56.080086)"><g><path d="M 2.390625 0 C 0.921875 0 -0.269531 -0.453125 -1.1875 -1.359375 C -2.113281 -2.265625 -2.578125 -3.40625 -2.578125 -4.78125 C -2.578125 -5.125 -2.492188 -5.679688 -2.328125 -6.453125 L 2.96875 -26.296875 C 3.445312 -28.054688 4.492188 -29.570312 6.109375 -30.84375 C 7.722656 -32.113281 9.410156 -32.75 11.171875 -32.75 L 33.78125 -32.75 C 35.25 -32.75 36.441406 -32.296875 37.359375 -31.390625 C 38.285156 -30.484375 38.75 -29.34375 38.75 -27.96875 C 38.75 -27.625 38.664062 -27.066406 38.5 -26.296875 L 36.5625 -18.984375 C 36.082031 -17.179688 35.035156 -15.65625 33.421875 -14.40625 C 31.804688 -13.15625 30.117188 -12.53125 28.359375 -12.53125 L 10.921875 -12.53125 L 10.53125 -10.984375 C 10.445312 -10.640625 10.40625 -10.378906 10.40625 -10.203125 C 10.40625 -9.472656 10.628906 -8.878906 11.078125 -8.421875 C 11.523438 -7.972656 12.140625 -7.75 12.921875 -7.75 L 32.109375 -7.75 C 32.578125 -7.75 32.90625 -7.617188 33.09375 -7.359375 C 33.289062 -7.097656 33.328125 -6.753906 33.203125 -6.328125 L 31.78125 -1.09375 C 31.601562 -0.363281 31.109375 0 30.296875 0 Z M 22.9375 -20.28125 C 23.75 -20.28125 24.46875 -20.582031 25.09375 -21.1875 C 25.71875 -21.789062 26.03125 -22.476562 26.03125 -23.25 C 26.03125 -23.769531 25.859375 -24.191406 25.515625 -24.515625 C 25.171875 -24.835938 24.71875 -25 24.15625 -25 L 17.5 -25 C 16.601562 -25 15.753906 -24.6875 14.953125 -24.0625 C 14.160156 -23.4375 13.65625 -22.671875 13.4375 -21.765625 L 13.046875 -20.28125 Z M 22.9375 -20.28125 "/></g></g></g><g fill="#ffffff" fill-opacity="1"><g transform="translate(149.928017, 56.080086)"><g><path d="M -2.578125 0 C -3.054688 0 -3.390625 -0.128906 -3.578125 -0.390625 C -3.773438 -0.648438 -3.8125 -0.992188 -3.6875 -1.421875 L -2.265625 -6.65625 C -2.085938 -7.382812 -1.59375 -7.75 -0.78125 -7.75 L 19.578125 -7.75 C 20.265625 -7.75 20.882812 -7.972656 21.4375 -8.421875 C 22 -8.878906 22.390625 -9.453125 22.609375 -10.140625 C 22.648438 -10.265625 22.671875 -10.457031 22.671875 -10.71875 C 22.671875 -11.238281 22.5 -11.660156 22.15625 -11.984375 C 21.8125 -12.304688 21.359375 -12.46875 20.796875 -12.46875 L 5.75 -12.46875 C 4.28125 -12.46875 3.082031 -12.914062 2.15625 -13.8125 C 1.238281 -14.71875 0.78125 -15.863281 0.78125 -17.25 C 0.78125 -17.59375 0.863281 -18.148438 1.03125 -18.921875 L 2.96875 -26.296875 C 3.445312 -28.054688 4.492188 -29.570312 6.109375 -30.84375 C 7.722656 -32.113281 9.410156 -32.75 11.171875 -32.75 L 38.75 -32.75 C 39.226562 -32.75 39.5625 -32.617188 39.75 -32.359375 C 39.945312 -32.097656 39.984375 -31.753906 39.859375 -31.328125 L 38.5 -26.09375 C 38.28125 -25.363281 37.785156 -25 37.015625 -25 L 16.671875 -25 C 15.890625 -25 15.175781 -24.6875 14.53125 -24.0625 C 13.882812 -23.4375 13.5625 -22.757812 13.5625 -22.03125 C 13.5625 -21.507812 13.722656 -21.078125 14.046875 -20.734375 C 14.367188 -20.390625 14.8125 -20.21875 15.375 -20.21875 L 30.421875 -20.21875 C 31.890625 -20.21875 33.097656 -19.765625 34.046875 -18.859375 C 34.992188 -17.953125 35.46875 -16.8125 35.46875 -15.4375 C 35.46875 -15.09375 35.378906 -14.535156 35.203125 -13.765625 L 33.203125 -6.453125 C 32.722656 -4.691406 31.675781 -3.175781 30.0625 -1.90625 C 28.445312 -0.632812 26.757812 0 25 0 Z M -2.578125 0 "/></g></g></g><g clip-path="url(#8ceaba7999)"><g fill="#ffffff" fill-opacity="1"><g transform="translate(187.395817, 56.080086)"><g><path d="M -2.578125 0 C -3.054688 0 -3.390625 -0.128906 -3.578125 -0.390625 C -3.773438 -0.648438 -3.8125 -0.992188 -3.6875 -1.421875 L 7.75 -44.125 C 7.96875 -44.851562 8.460938 -45.21875 9.234375 -45.21875 L 18.21875 -45.21875 C 18.6875 -45.21875 19.015625 -45.085938 19.203125 -44.828125 C 19.398438 -44.566406 19.4375 -44.222656 19.3125 -43.796875 L 16.34375 -32.75 L 33.78125 -32.75 C 35.25 -32.75 36.441406 -32.296875 37.359375 -31.390625 C 38.285156 -30.484375 38.75 -29.34375 38.75 -27.96875 C 38.75 -27.625 38.664062 -27.066406 38.5 -26.296875 L 31.78125 -1.09375 C 31.5625 -0.363281 31.066406 0 30.296875 0 L 21.3125 0 C 20.84375 0 20.507812 -0.128906 20.3125 -0.390625 C 20.125 -0.648438 20.09375 -0.992188 20.21875 -1.421875 L 25.703125 -21.765625 C 25.796875 -22.109375 25.84375 -22.367188 25.84375 -22.546875 C 25.84375 -23.273438 25.613281 -23.863281 25.15625 -24.3125 C 24.707031 -24.769531 24.09375 -25 23.3125 -25 L 14.28125 -25 L 7.875 -1.09375 C 7.664062 -0.363281 7.171875 0 6.390625 0 Z M -2.578125 0 "/></g></g></g></g></g></g></g></svg>